<svg width="571" height="96" viewBox="0 0 571 96" fill="none" xmlns="http://www.w3.org/2000/svg">
<path d="M25.2993 5.25055H39.6192V19.5705H25.2993V5.25055Z" fill="#F7FAFC"/>
<path d="M39.6181 5.25055H53.9381V19.5705H39.6181V5.25055Z" fill="#F7FAFC"/>
<path d="M82.5776 62.5305H96.8975V76.8504H82.5776V62.5305Z" fill="#F7FAFC"/>
<path d="M10.979 19.5705C10.979 11.6618 17.3906 5.25055 25.2993 5.25055V19.5705H10.979Z" fill="#F7FAFC"/>
<path d="M68.2573 76.8503L82.5776 76.8504L82.5772 91.1702H68.2573V76.8503Z" fill="#F7FAFC"/>
<path d="M82.5776 76.8504H96.8975C96.8975 84.7591 90.4859 91.1702 82.5772 91.1702L82.5776 76.8504Z" fill="#F7FAFC"/>
<path d="M53.9384 76.8503H68.2584V91.1702H53.9384V76.8503Z" fill="#F7FAFC"/>
<path d="M39.6181 76.8503H53.9384V91.1702H39.6181V76.8503Z" fill="#F7FAFC"/>
<path d="M25.2993 76.8503H39.6192V91.1702H25.2993V76.8503Z" fill="#F7FAFC"/>
<path d="M10.979 91.1702C10.979 83.2615 17.3906 76.8503 25.2993 76.8503V91.1702H10.979Z" fill="#F7FAFC"/>
<path d="M82.5776 48.2106H96.8975V62.5305H82.5776V48.2106Z" fill="#F7FAFC"/>
<path d="M82.5776 33.8904H96.8975V48.2106H82.5776V33.8904Z" fill="#F7FAFC"/>
<path d="M82.5776 19.5705H96.8975V33.8904H82.5776V19.5705Z" fill="#F7FAFC"/>
<path d="M10.979 48.2106H25.2989V62.5305H10.979V48.2106Z" fill="#F7FAFC"/>
<path d="M10.979 19.5705H25.2993L25.2989 33.8904H10.979V19.5705Z" fill="#F7FAFC"/>
<path d="M10.979 33.8904H25.2989V48.2106H10.979V33.8904Z" fill="#F7FAFC"/>
<path d="M82.5776 5.25055C90.4863 5.25055 96.8975 11.6618 96.8975 19.5705H82.5776V5.25055Z" fill="#F7FAFC"/>
<path d="M68.2573 5.25055H82.5776V19.5705L68.2573 19.5705V5.25055Z" fill="#F7FAFC"/>
<path d="M53.9381 5.25055H68.2584V19.5705H53.9381V5.25055Z" fill="#F7FAFC"/>
<path d="M18 73L31.8564 58H4.14355L18 73Z" fill="#F7FAFC"/>
<path d="M39.6181 29.1172H53.9381V38.6639H39.6181V29.1172Z" fill="#F7FAFC"/>
<path d="M53.9381 29.1172H68.2584V38.6639H53.9381V29.1172Z" fill="#F7FAFC"/>
<path d="M39.6181 43.437H53.9381V52.9836H39.6181V43.437Z" fill="#F7FAFC"/>
<path d="M53.9381 43.437H68.2584V52.9836H53.9381V43.437Z" fill="#F7FAFC"/>
<path d="M39.6181 57.757H53.9381V67.3036H39.6181V57.757Z" fill="#F7FAFC"/>
<path d="M53.9381 57.757H68.2584V67.3036H53.9381V57.757Z" fill="#F7FAFC"/>
<path d="M119.95 67.4981V59.9974L142.045 25.0875H148.3V35.7664H144.486L129.612 59.3363V59.7432H160.454V67.4981H119.95ZM144.791 77.16V65.2097L144.893 61.8535V25.0875H153.792V77.16H144.791ZM168.577 77.16V70.3458L186.655 52.6239C188.384 50.8779 189.825 49.327 190.978 47.9709C192.13 46.6149 192.995 45.3012 193.571 44.0299C194.147 42.7586 194.435 41.4025 194.435 39.9617C194.435 38.3175 194.063 36.9106 193.317 35.741C192.571 34.5544 191.545 33.6391 190.24 32.995C188.935 32.3509 187.452 32.0288 185.791 32.0288C184.079 32.0288 182.578 32.3848 181.29 33.0967C180.002 33.7917 179.002 34.7833 178.29 36.0715C177.595 37.3598 177.247 38.8938 177.247 40.6736H168.272C168.272 37.3683 169.026 34.4951 170.535 32.0542C172.044 29.6133 174.12 27.7233 176.764 26.3842C179.426 25.0451 182.477 24.3756 185.918 24.3756C189.41 24.3756 192.478 25.0282 195.122 26.3334C197.766 27.6386 199.817 29.4269 201.275 31.6983C202.75 33.9696 203.487 36.5631 203.487 39.4786C203.487 41.4279 203.114 43.3434 202.368 45.2249C201.623 47.1064 200.309 49.1914 198.427 51.4797C196.563 53.768 193.944 56.5395 190.571 59.794L181.595 68.9219V69.2779H204.275V77.16H168.577Z" fill="#F7FAFC"/>
<path d="M223.071 77.16V25.0875H256.43V32.995H232.504V47.1318H254.142V55.0393H232.504V77.16H223.071ZM279.04 77.9228C275.125 77.9228 271.743 77.1091 268.895 75.4819C266.064 73.8376 263.886 71.5154 262.361 68.5151C260.835 65.4979 260.072 61.9467 260.072 57.8616C260.072 53.8443 260.835 50.3186 262.361 47.2844C263.903 44.2333 266.056 41.8602 268.819 40.1651C271.582 38.4531 274.828 37.5971 278.557 37.5971C280.964 37.5971 283.235 37.987 285.371 38.7667C287.524 39.5295 289.422 40.716 291.067 42.3263C292.728 43.9366 294.033 45.9877 294.982 48.4794C295.931 50.9542 296.406 53.9036 296.406 57.3277V60.15H264.395V53.946H287.583C287.566 52.1832 287.185 50.6152 286.439 49.2422C285.693 47.8523 284.651 46.7589 283.312 45.9623C281.99 45.1656 280.447 44.7672 278.684 44.7672C276.803 44.7672 275.15 45.2249 273.726 46.1402C272.302 47.0386 271.192 48.2252 270.395 49.6999C269.616 51.1576 269.217 52.7595 269.2 54.5054V59.9211C269.2 62.1925 269.616 64.1419 270.446 65.7691C271.277 67.3794 272.438 68.6168 273.929 69.4813C275.421 70.3289 277.167 70.7526 279.167 70.7526C280.506 70.7526 281.718 70.5662 282.803 70.1932C283.888 69.8034 284.829 69.2355 285.625 68.4897C286.422 67.7439 287.024 66.8201 287.431 65.7183L296.025 66.6845C295.482 68.9558 294.448 70.9391 292.923 72.6341C291.414 74.3123 289.482 75.6175 287.126 76.5497C284.769 77.4651 282.074 77.9228 279.04 77.9228ZM321.483 77.9228C317.567 77.9228 314.185 77.1091 311.338 75.4819C308.507 73.8376 306.329 71.5154 304.803 68.5151C303.277 65.4979 302.515 61.9467 302.515 57.8616C302.515 53.8443 303.277 50.3186 304.803 47.2844C306.346 44.2333 308.498 41.8602 311.261 40.1651C314.024 38.4531 317.27 37.5971 320.999 37.5971C323.406 37.5971 325.678 37.987 327.814 38.7667C329.966 39.5295 331.865 40.716 333.509 42.3263C335.17 43.9366 336.475 45.9877 337.425 48.4794C338.374 50.9542 338.848 53.9036 338.848 57.3277V60.15H306.837V53.946H330.026C330.009 52.1832 329.627 50.6152 328.881 49.2422C328.136 47.8523 327.093 46.7589 325.754 45.9623C324.432 45.1656 322.889 44.7672 321.127 44.7672C319.245 44.7672 317.592 45.2249 316.168 46.1402C314.745 47.0386 313.634 48.2252 312.838 49.6999C312.058 51.1576 311.66 52.7595 311.643 54.5054V59.9211C311.643 62.1925 312.058 64.1419 312.889 65.7691C313.719 67.3794 314.88 68.6168 316.372 69.4813C317.864 70.3289 319.609 70.7526 321.61 70.7526C322.949 70.7526 324.161 70.5662 325.246 70.1932C326.33 69.8034 327.271 69.2355 328.068 68.4897C328.865 67.7439 329.466 66.8201 329.873 65.7183L338.467 66.6845C337.925 68.9558 336.891 70.9391 335.365 72.6341C333.856 74.3123 331.924 75.6175 329.568 76.5497C327.212 77.4651 324.517 77.9228 321.483 77.9228ZM361.128 77.8465C358.06 77.8465 355.314 77.0583 352.89 75.4819C350.466 73.9054 348.551 71.6171 347.144 68.6168C345.737 65.6166 345.033 61.9722 345.033 57.6836C345.033 53.3443 345.745 49.6829 347.169 46.6996C348.61 43.6993 350.551 41.4364 352.992 39.9109C355.433 38.3684 358.153 37.5971 361.153 37.5971C363.442 37.5971 365.323 37.987 366.798 38.7667C368.273 39.5295 369.442 40.4533 370.307 41.5381C371.171 42.606 371.841 43.6146 372.315 44.5638H372.697V25.0875H381.926V77.16H372.875V71.0069H372.315C371.841 71.9561 371.154 72.9647 370.256 74.0326C369.358 75.0835 368.171 75.9819 366.696 76.7277C365.222 77.4736 363.366 77.8465 361.128 77.8465ZM363.696 70.2949C365.645 70.2949 367.307 69.7695 368.68 68.7185C370.053 67.6506 371.095 66.1675 371.807 64.269C372.519 62.3705 372.875 60.1584 372.875 57.6328C372.875 55.1071 372.519 52.912 371.807 51.0475C371.112 49.1829 370.078 47.7336 368.705 46.6996C367.349 45.6656 365.679 45.1486 363.696 45.1486C361.645 45.1486 359.933 45.6826 358.56 46.7505C357.187 47.8184 356.153 49.2931 355.458 51.1746C354.763 53.0561 354.416 55.2088 354.416 57.6328C354.416 60.0737 354.763 62.2519 355.458 64.1673C356.17 66.0658 357.212 67.5659 358.585 68.6677C359.975 69.7525 361.679 70.2949 363.696 70.2949ZM392.141 77.16V25.0875H401.346V44.5638H401.727C402.202 43.6146 402.871 42.606 403.736 41.5381C404.6 40.4533 405.77 39.5295 407.244 38.7667C408.719 37.987 410.601 37.5971 412.889 37.5971C415.906 37.5971 418.627 38.3684 421.051 39.9109C423.492 41.4364 425.424 43.6993 426.848 46.6996C428.289 49.6829 429.009 53.3443 429.009 57.6836C429.009 61.9722 428.306 65.6166 426.899 68.6168C425.492 71.6171 423.576 73.9054 421.152 75.4819C418.729 77.0583 415.983 77.8465 412.914 77.8465C410.677 77.8465 408.821 77.4736 407.346 76.7277C405.871 75.9819 404.685 75.0835 403.787 74.0326C402.905 72.9647 402.219 71.9561 401.727 71.0069H401.193V77.16H392.141ZM401.168 57.6328C401.168 60.1584 401.524 62.3705 402.236 64.269C402.964 66.1675 404.007 67.6506 405.363 68.7185C406.736 69.7695 408.397 70.2949 410.346 70.2949C412.381 70.2949 414.084 69.7525 415.457 68.6677C416.83 67.5659 417.864 66.0658 418.559 64.1673C419.271 62.2519 419.627 60.0737 419.627 57.6328C419.627 55.2088 419.279 53.0561 418.584 51.1746C417.889 49.2931 416.855 47.8184 415.482 46.7505C414.109 45.6826 412.397 45.1486 410.346 45.1486C408.38 45.1486 406.711 45.6656 405.337 46.6996C403.964 47.7336 402.922 49.1829 402.21 51.0475C401.515 52.912 401.168 55.1071 401.168 57.6328ZM448.072 77.9482C445.597 77.9482 443.368 77.5075 441.385 76.626C439.419 75.7276 437.859 74.4055 436.707 72.6596C435.571 70.9136 435.003 68.7609 435.003 66.2014C435.003 63.9978 435.41 62.1756 436.224 60.7348C437.037 59.294 438.148 58.1413 439.555 57.2768C440.961 56.4123 442.546 55.7597 444.309 55.319C446.089 54.8614 447.928 54.5308 449.827 54.3274C452.115 54.0901 453.971 53.8782 455.395 53.6918C456.819 53.4884 457.853 53.1832 458.497 52.7764C459.158 52.3527 459.489 51.7001 459.489 50.8186V50.6661C459.489 48.7506 458.921 47.2675 457.785 46.2165C456.649 45.1656 455.014 44.6401 452.878 44.6401C450.623 44.6401 448.835 45.1317 447.513 46.1148C446.208 47.0979 445.326 48.2591 444.869 49.5982L436.275 48.3777C436.953 46.0046 438.071 44.0214 439.631 42.428C441.19 40.8177 443.097 39.6142 445.352 38.8175C447.606 38.0039 450.098 37.5971 452.827 37.5971C454.708 37.5971 456.582 37.8175 458.446 38.2582C460.311 38.6989 462.014 39.4278 463.557 40.4448C465.099 41.4449 466.337 42.8094 467.269 44.5384C468.218 46.2674 468.693 48.4286 468.693 51.022V77.16H459.845V71.7951H459.539C458.98 72.8799 458.192 73.897 457.175 74.8462C456.175 75.7785 454.912 76.5328 453.386 77.1091C451.878 77.6685 450.106 77.9482 448.072 77.9482ZM450.462 71.1849C452.31 71.1849 453.912 70.8204 455.268 70.0915C456.624 69.3457 457.666 68.3626 458.395 67.1421C459.141 65.9217 459.514 64.591 459.514 63.1502V58.5481C459.226 58.7854 458.734 59.0058 458.039 59.2092C457.361 59.4126 456.598 59.5906 455.751 59.7432C454.903 59.8957 454.064 60.0313 453.234 60.15C452.403 60.2686 451.683 60.3703 451.073 60.4551C449.7 60.6415 448.471 60.9467 447.386 61.3704C446.301 61.7942 445.445 62.3875 444.818 63.1502C444.191 63.8961 443.877 64.8623 443.877 66.0488C443.877 67.7439 444.496 69.0236 445.733 69.8881C446.97 70.7526 448.547 71.1849 450.462 71.1849ZM494.983 77.9228C491.085 77.9228 487.737 77.0667 484.94 75.3547C482.16 73.6427 480.016 71.2781 478.507 68.2609C477.016 65.2267 476.27 61.7349 476.27 57.7854C476.27 53.8189 477.032 50.3186 478.558 47.2844C480.084 44.2333 482.236 41.8602 485.016 40.1651C487.813 38.4531 491.119 37.5971 494.932 37.5971C498.102 37.5971 500.908 38.1819 503.348 39.3515C505.806 40.5041 507.764 42.1399 509.222 44.2587C510.68 46.3606 511.51 48.8184 511.714 51.6323H502.916C502.56 49.7507 501.713 48.1828 500.374 46.9284C499.051 45.6571 497.28 45.0215 495.06 45.0215C493.178 45.0215 491.525 45.53 490.101 46.5471C488.678 47.5471 487.567 48.9879 486.771 50.8695C485.991 52.751 485.601 55.0054 485.601 57.6328C485.601 60.2941 485.991 62.5824 486.771 64.4978C487.55 66.3963 488.644 67.8625 490.051 68.8965C491.474 69.9136 493.144 70.4221 495.06 70.4221C496.416 70.4221 497.628 70.1678 498.695 69.6593C499.78 69.1338 500.687 68.3795 501.416 67.3964C502.145 66.4132 502.645 65.2182 502.916 63.8113H511.714C511.493 66.5743 510.68 69.0236 509.273 71.1594C507.866 73.2783 505.95 74.9394 503.526 76.1429C501.102 77.3295 498.255 77.9228 494.983 77.9228ZM527.662 64.9046L527.637 53.7935H529.111L543.147 38.1056H553.902L536.637 57.3277H534.73L527.662 64.9046ZM519.271 77.16V25.0875H528.476V77.16H519.271ZM543.782 77.16L531.069 59.3872L537.273 52.9036L554.792 77.16H543.782Z" fill="#F7FAFC"/>
</svg>
